<svg width="15" height="14" viewBox="0 0 15 14" fill="none" xmlns="http://www.w3.org/2000/svg">
<path d="M6.23396 1.06611C5.92255 1.37969 5.95542 1.84833 6.23775 2.15985L10.0314 5.74049L1.03148 5.77166C0.625229 5.77306 0.282564 6.08675 0.284079 6.52425L0.287542 7.52424C0.288949 7.93049 0.633887 8.27305 1.04013 8.27164L10.0401 8.24047L6.27119 11.816C5.99102 12.1295 5.9614 12.5984 6.27498 12.9098L6.96486 13.5949C7.24708 13.8752 7.74707 13.8734 8.02735 13.5912L14.0687 7.47652C14.3802 7.19419 14.3786 6.72544 14.0651 6.44527L7.98157 0.372555C7.69935 0.0922808 7.2306 0.0939042 6.91908 0.376235L6.23396 1.06611Z" fill="#959EAD"/>
</svg>
